<mxfile host="Electron" agent="Mozilla/5.0 (X11; Linux x86_64) AppleWebKit/537.36 (KHTML, like Gecko) draw.io/27.0.9 Chrome/134.0.6998.205 Electron/35.4.0 Safari/537.36" version="27.0.9">
  <diagram name="PÃ¡gina-1" id="vy2yY-XLJVjpXP8TsrvZ">
    <mxGraphModel dx="2037" dy="1250" grid="0" gridSize="10" guides="1" tooltips="1" connect="1" arrows="1" fold="1" page="1" pageScale="1" pageWidth="827" pageHeight="1169" math="0" shadow="0">
      <root>
        <mxCell id="0" />
        <mxCell id="1" parent="0" />
        <mxCell id="iyC7rp4BUy3qYHjlYlsj-1" style="edgeStyle=orthogonalEdgeStyle;rounded=0;orthogonalLoop=1;jettySize=auto;html=1;exitX=0.5;exitY=1;exitDx=0;exitDy=0;" edge="1" parent="1" source="iyC7rp4BUy3qYHjlYlsj-3">
          <mxGeometry relative="1" as="geometry">
            <mxPoint x="200" y="109" as="targetPoint" />
          </mxGeometry>
        </mxCell>
        <mxCell id="iyC7rp4BUy3qYHjlYlsj-2" value="&lt;b&gt;&lt;font style=&quot;font-size: 13px;&quot;&gt;i&lt;/font&gt;&lt;/b&gt;" style="edgeLabel;html=1;align=center;verticalAlign=middle;resizable=0;points=[];" vertex="1" connectable="0" parent="iyC7rp4BUy3qYHjlYlsj-1">
          <mxGeometry x="-0.3687" relative="1" as="geometry">
            <mxPoint as="offset" />
          </mxGeometry>
        </mxCell>
        <mxCell id="iyC7rp4BUy3qYHjlYlsj-3" value="1" style="ellipse;whiteSpace=wrap;html=1;aspect=fixed;" vertex="1" parent="1">
          <mxGeometry x="180" y="20" width="40" height="40" as="geometry" />
        </mxCell>
        <mxCell id="iyC7rp4BUy3qYHjlYlsj-4" value="2" style="ellipse;whiteSpace=wrap;html=1;aspect=fixed;" vertex="1" parent="1">
          <mxGeometry x="180" y="110" width="40" height="40" as="geometry" />
        </mxCell>
        <mxCell id="iyC7rp4BUy3qYHjlYlsj-24" style="edgeStyle=orthogonalEdgeStyle;rounded=0;orthogonalLoop=1;jettySize=auto;html=1;exitX=1;exitY=0.5;exitDx=0;exitDy=0;entryX=0.5;entryY=0;entryDx=0;entryDy=0;" edge="1" parent="1" source="iyC7rp4BUy3qYHjlYlsj-5" target="iyC7rp4BUy3qYHjlYlsj-10">
          <mxGeometry relative="1" as="geometry" />
        </mxCell>
        <mxCell id="iyC7rp4BUy3qYHjlYlsj-108" value="&lt;b&gt;&lt;font style=&quot;font-size: 13px;&quot;&gt;v&lt;/font&gt;&lt;/b&gt;" style="edgeLabel;html=1;align=center;verticalAlign=middle;resizable=0;points=[];" vertex="1" connectable="0" parent="iyC7rp4BUy3qYHjlYlsj-24">
          <mxGeometry x="0.8002" y="1" relative="1" as="geometry">
            <mxPoint as="offset" />
          </mxGeometry>
        </mxCell>
        <mxCell id="iyC7rp4BUy3qYHjlYlsj-28" style="edgeStyle=orthogonalEdgeStyle;rounded=0;orthogonalLoop=1;jettySize=auto;html=1;exitX=0;exitY=0.5;exitDx=0;exitDy=0;" edge="1" parent="1" source="iyC7rp4BUy3qYHjlYlsj-5" target="iyC7rp4BUy3qYHjlYlsj-27">
          <mxGeometry relative="1" as="geometry" />
        </mxCell>
        <mxCell id="iyC7rp4BUy3qYHjlYlsj-105" value="&lt;b&gt;&lt;font style=&quot;font-size: 13px;&quot;&gt;iii&lt;/font&gt;&lt;/b&gt;" style="edgeLabel;html=1;align=center;verticalAlign=middle;resizable=0;points=[];" vertex="1" connectable="0" parent="iyC7rp4BUy3qYHjlYlsj-28">
          <mxGeometry x="0.59" relative="1" as="geometry">
            <mxPoint as="offset" />
          </mxGeometry>
        </mxCell>
        <mxCell id="iyC7rp4BUy3qYHjlYlsj-5" value="3" style="ellipse;whiteSpace=wrap;html=1;aspect=fixed;" vertex="1" parent="1">
          <mxGeometry x="180" y="200" width="40" height="40" as="geometry" />
        </mxCell>
        <mxCell id="iyC7rp4BUy3qYHjlYlsj-6" style="edgeStyle=orthogonalEdgeStyle;rounded=0;orthogonalLoop=1;jettySize=auto;html=1;exitX=0.5;exitY=1;exitDx=0;exitDy=0;" edge="1" parent="1">
          <mxGeometry relative="1" as="geometry">
            <mxPoint x="199.71" y="199" as="targetPoint" />
            <mxPoint x="199.71" y="150" as="sourcePoint" />
          </mxGeometry>
        </mxCell>
        <mxCell id="iyC7rp4BUy3qYHjlYlsj-7" value="&lt;b&gt;&lt;font style=&quot;font-size: 13px;&quot;&gt;ii&lt;/font&gt;&lt;/b&gt;" style="edgeLabel;html=1;align=center;verticalAlign=middle;resizable=0;points=[];" vertex="1" connectable="0" parent="iyC7rp4BUy3qYHjlYlsj-6">
          <mxGeometry x="-0.2357" y="2" relative="1" as="geometry">
            <mxPoint as="offset" />
          </mxGeometry>
        </mxCell>
        <mxCell id="iyC7rp4BUy3qYHjlYlsj-8" style="edgeStyle=orthogonalEdgeStyle;rounded=0;orthogonalLoop=1;jettySize=auto;html=1;exitX=0.5;exitY=1;exitDx=0;exitDy=0;" edge="1" parent="1" source="iyC7rp4BUy3qYHjlYlsj-10">
          <mxGeometry relative="1" as="geometry">
            <mxPoint x="526" y="381" as="targetPoint" />
          </mxGeometry>
        </mxCell>
        <mxCell id="iyC7rp4BUy3qYHjlYlsj-9" value="&lt;b&gt;&lt;font style=&quot;font-size: 13px;&quot;&gt;vi&lt;/font&gt;&lt;/b&gt;" style="edgeLabel;html=1;align=center;verticalAlign=middle;resizable=0;points=[];" vertex="1" connectable="0" parent="iyC7rp4BUy3qYHjlYlsj-8">
          <mxGeometry x="-0.3687" relative="1" as="geometry">
            <mxPoint as="offset" />
          </mxGeometry>
        </mxCell>
        <mxCell id="iyC7rp4BUy3qYHjlYlsj-10" value="5" style="ellipse;whiteSpace=wrap;html=1;aspect=fixed;" vertex="1" parent="1">
          <mxGeometry x="506" y="292" width="40" height="40" as="geometry" />
        </mxCell>
        <mxCell id="iyC7rp4BUy3qYHjlYlsj-11" value="6" style="ellipse;whiteSpace=wrap;html=1;aspect=fixed;" vertex="1" parent="1">
          <mxGeometry x="506" y="382" width="40" height="40" as="geometry" />
        </mxCell>
        <mxCell id="iyC7rp4BUy3qYHjlYlsj-12" value="7" style="ellipse;whiteSpace=wrap;html=1;aspect=fixed;" vertex="1" parent="1">
          <mxGeometry x="506" y="472" width="40" height="40" as="geometry" />
        </mxCell>
        <mxCell id="iyC7rp4BUy3qYHjlYlsj-13" style="edgeStyle=orthogonalEdgeStyle;rounded=0;orthogonalLoop=1;jettySize=auto;html=1;exitX=0.5;exitY=1;exitDx=0;exitDy=0;" edge="1" parent="1">
          <mxGeometry relative="1" as="geometry">
            <mxPoint x="525.71" y="471" as="targetPoint" />
            <mxPoint x="525.71" y="422" as="sourcePoint" />
          </mxGeometry>
        </mxCell>
        <mxCell id="iyC7rp4BUy3qYHjlYlsj-14" value="&lt;b&gt;&lt;font style=&quot;font-size: 13px;&quot;&gt;vii&lt;/font&gt;&lt;/b&gt;" style="edgeLabel;html=1;align=center;verticalAlign=middle;resizable=0;points=[];" vertex="1" connectable="0" parent="iyC7rp4BUy3qYHjlYlsj-13">
          <mxGeometry x="-0.2357" y="2" relative="1" as="geometry">
            <mxPoint as="offset" />
          </mxGeometry>
        </mxCell>
        <mxCell id="iyC7rp4BUy3qYHjlYlsj-15" style="edgeStyle=orthogonalEdgeStyle;rounded=0;orthogonalLoop=1;jettySize=auto;html=1;exitX=0.5;exitY=1;exitDx=0;exitDy=0;" edge="1" parent="1" source="iyC7rp4BUy3qYHjlYlsj-17">
          <mxGeometry relative="1" as="geometry">
            <mxPoint x="526" y="651" as="targetPoint" />
          </mxGeometry>
        </mxCell>
        <mxCell id="iyC7rp4BUy3qYHjlYlsj-16" value="&lt;b&gt;&lt;font style=&quot;font-size: 13px;&quot;&gt;ix&lt;/font&gt;&lt;/b&gt;" style="edgeLabel;html=1;align=center;verticalAlign=middle;resizable=0;points=[];" vertex="1" connectable="0" parent="iyC7rp4BUy3qYHjlYlsj-15">
          <mxGeometry x="-0.3687" relative="1" as="geometry">
            <mxPoint as="offset" />
          </mxGeometry>
        </mxCell>
        <mxCell id="iyC7rp4BUy3qYHjlYlsj-17" value="8" style="ellipse;whiteSpace=wrap;html=1;aspect=fixed;" vertex="1" parent="1">
          <mxGeometry x="506" y="562" width="40" height="40" as="geometry" />
        </mxCell>
        <mxCell id="iyC7rp4BUy3qYHjlYlsj-94" style="edgeStyle=orthogonalEdgeStyle;rounded=0;orthogonalLoop=1;jettySize=auto;html=1;exitX=0;exitY=0.5;exitDx=0;exitDy=0;entryX=0.5;entryY=0;entryDx=0;entryDy=0;" edge="1" parent="1" source="iyC7rp4BUy3qYHjlYlsj-18" target="iyC7rp4BUy3qYHjlYlsj-31">
          <mxGeometry relative="1" as="geometry" />
        </mxCell>
        <mxCell id="iyC7rp4BUy3qYHjlYlsj-109" value="&lt;b&gt;&lt;font style=&quot;font-size: 13px;&quot;&gt;x&lt;/font&gt;&lt;/b&gt;" style="edgeLabel;html=1;align=center;verticalAlign=middle;resizable=0;points=[];" vertex="1" connectable="0" parent="iyC7rp4BUy3qYHjlYlsj-94">
          <mxGeometry x="0.6104" y="1" relative="1" as="geometry">
            <mxPoint as="offset" />
          </mxGeometry>
        </mxCell>
        <mxCell id="iyC7rp4BUy3qYHjlYlsj-95" style="edgeStyle=orthogonalEdgeStyle;rounded=0;orthogonalLoop=1;jettySize=auto;html=1;exitX=1;exitY=0.5;exitDx=0;exitDy=0;" edge="1" parent="1" source="iyC7rp4BUy3qYHjlYlsj-18" target="iyC7rp4BUy3qYHjlYlsj-57">
          <mxGeometry relative="1" as="geometry" />
        </mxCell>
        <mxCell id="iyC7rp4BUy3qYHjlYlsj-117" value="&lt;b&gt;&lt;font style=&quot;font-size: 13px;&quot;&gt;xxiii&lt;/font&gt;&lt;/b&gt;" style="edgeLabel;html=1;align=center;verticalAlign=middle;resizable=0;points=[];" vertex="1" connectable="0" parent="iyC7rp4BUy3qYHjlYlsj-95">
          <mxGeometry x="0.7847" relative="1" as="geometry">
            <mxPoint as="offset" />
          </mxGeometry>
        </mxCell>
        <mxCell id="iyC7rp4BUy3qYHjlYlsj-18" value="9" style="ellipse;whiteSpace=wrap;html=1;aspect=fixed;" vertex="1" parent="1">
          <mxGeometry x="506" y="652" width="40" height="40" as="geometry" />
        </mxCell>
        <mxCell id="iyC7rp4BUy3qYHjlYlsj-22" style="edgeStyle=orthogonalEdgeStyle;rounded=0;orthogonalLoop=1;jettySize=auto;html=1;exitX=0.5;exitY=1;exitDx=0;exitDy=0;" edge="1" parent="1">
          <mxGeometry relative="1" as="geometry">
            <mxPoint x="525.5" y="565" as="targetPoint" />
            <mxPoint x="525.5" y="516" as="sourcePoint" />
          </mxGeometry>
        </mxCell>
        <mxCell id="iyC7rp4BUy3qYHjlYlsj-23" value="&lt;b&gt;&lt;font style=&quot;font-size: 13px;&quot;&gt;viii&lt;/font&gt;&lt;/b&gt;" style="edgeLabel;html=1;align=center;verticalAlign=middle;resizable=0;points=[];" vertex="1" connectable="0" parent="iyC7rp4BUy3qYHjlYlsj-22">
          <mxGeometry x="-0.3687" relative="1" as="geometry">
            <mxPoint as="offset" />
          </mxGeometry>
        </mxCell>
        <mxCell id="iyC7rp4BUy3qYHjlYlsj-96" style="edgeStyle=orthogonalEdgeStyle;rounded=0;orthogonalLoop=1;jettySize=auto;html=1;exitX=0.5;exitY=1;exitDx=0;exitDy=0;entryX=0;entryY=0.5;entryDx=0;entryDy=0;" edge="1" parent="1" source="iyC7rp4BUy3qYHjlYlsj-27" target="iyC7rp4BUy3qYHjlYlsj-93">
          <mxGeometry relative="1" as="geometry" />
        </mxCell>
        <mxCell id="iyC7rp4BUy3qYHjlYlsj-106" value="&lt;b&gt;&lt;font style=&quot;font-size: 13px;&quot;&gt;iv&lt;/font&gt;&lt;/b&gt;" style="edgeLabel;html=1;align=center;verticalAlign=middle;resizable=0;points=[];" vertex="1" connectable="0" parent="iyC7rp4BUy3qYHjlYlsj-96">
          <mxGeometry x="-0.7874" y="1" relative="1" as="geometry">
            <mxPoint as="offset" />
          </mxGeometry>
        </mxCell>
        <mxCell id="iyC7rp4BUy3qYHjlYlsj-27" value="4" style="ellipse;whiteSpace=wrap;html=1;aspect=fixed;" vertex="1" parent="1">
          <mxGeometry x="30" y="320" width="40" height="40" as="geometry" />
        </mxCell>
        <mxCell id="iyC7rp4BUy3qYHjlYlsj-29" style="edgeStyle=orthogonalEdgeStyle;rounded=0;orthogonalLoop=1;jettySize=auto;html=1;exitX=0.5;exitY=1;exitDx=0;exitDy=0;" edge="1" parent="1" source="iyC7rp4BUy3qYHjlYlsj-31">
          <mxGeometry relative="1" as="geometry">
            <mxPoint x="342" y="830" as="targetPoint" />
          </mxGeometry>
        </mxCell>
        <mxCell id="iyC7rp4BUy3qYHjlYlsj-30" value="&lt;b&gt;&lt;font style=&quot;font-size: 13px;&quot;&gt;xi&lt;/font&gt;&lt;/b&gt;" style="edgeLabel;html=1;align=center;verticalAlign=middle;resizable=0;points=[];" vertex="1" connectable="0" parent="iyC7rp4BUy3qYHjlYlsj-29">
          <mxGeometry x="-0.3687" relative="1" as="geometry">
            <mxPoint as="offset" />
          </mxGeometry>
        </mxCell>
        <mxCell id="iyC7rp4BUy3qYHjlYlsj-31" value="10" style="ellipse;whiteSpace=wrap;html=1;aspect=fixed;" vertex="1" parent="1">
          <mxGeometry x="322" y="741" width="40" height="40" as="geometry" />
        </mxCell>
        <mxCell id="iyC7rp4BUy3qYHjlYlsj-32" value="11" style="ellipse;whiteSpace=wrap;html=1;aspect=fixed;" vertex="1" parent="1">
          <mxGeometry x="322" y="831" width="40" height="40" as="geometry" />
        </mxCell>
        <mxCell id="iyC7rp4BUy3qYHjlYlsj-33" value="12" style="ellipse;whiteSpace=wrap;html=1;aspect=fixed;" vertex="1" parent="1">
          <mxGeometry x="322" y="921" width="40" height="40" as="geometry" />
        </mxCell>
        <mxCell id="iyC7rp4BUy3qYHjlYlsj-34" style="edgeStyle=orthogonalEdgeStyle;rounded=0;orthogonalLoop=1;jettySize=auto;html=1;exitX=0.5;exitY=1;exitDx=0;exitDy=0;" edge="1" parent="1">
          <mxGeometry relative="1" as="geometry">
            <mxPoint x="341.71000000000004" y="920" as="targetPoint" />
            <mxPoint x="341.71000000000004" y="871" as="sourcePoint" />
          </mxGeometry>
        </mxCell>
        <mxCell id="iyC7rp4BUy3qYHjlYlsj-35" value="&lt;b&gt;&lt;font style=&quot;font-size: 13px;&quot;&gt;xii&lt;/font&gt;&lt;/b&gt;" style="edgeLabel;html=1;align=center;verticalAlign=middle;resizable=0;points=[];" vertex="1" connectable="0" parent="iyC7rp4BUy3qYHjlYlsj-34">
          <mxGeometry x="-0.2357" y="2" relative="1" as="geometry">
            <mxPoint as="offset" />
          </mxGeometry>
        </mxCell>
        <mxCell id="iyC7rp4BUy3qYHjlYlsj-36" style="edgeStyle=orthogonalEdgeStyle;rounded=0;orthogonalLoop=1;jettySize=auto;html=1;exitX=0.5;exitY=1;exitDx=0;exitDy=0;" edge="1" parent="1" source="iyC7rp4BUy3qYHjlYlsj-38">
          <mxGeometry relative="1" as="geometry">
            <mxPoint x="342" y="1100" as="targetPoint" />
          </mxGeometry>
        </mxCell>
        <mxCell id="iyC7rp4BUy3qYHjlYlsj-37" value="&lt;b&gt;&lt;font style=&quot;font-size: 13px;&quot;&gt;xiv&lt;/font&gt;&lt;/b&gt;" style="edgeLabel;html=1;align=center;verticalAlign=middle;resizable=0;points=[];" vertex="1" connectable="0" parent="iyC7rp4BUy3qYHjlYlsj-36">
          <mxGeometry x="-0.3687" relative="1" as="geometry">
            <mxPoint as="offset" />
          </mxGeometry>
        </mxCell>
        <mxCell id="iyC7rp4BUy3qYHjlYlsj-38" value="13" style="ellipse;whiteSpace=wrap;html=1;aspect=fixed;" vertex="1" parent="1">
          <mxGeometry x="322" y="1011" width="40" height="40" as="geometry" />
        </mxCell>
        <mxCell id="iyC7rp4BUy3qYHjlYlsj-39" value="14" style="ellipse;whiteSpace=wrap;html=1;aspect=fixed;" vertex="1" parent="1">
          <mxGeometry x="322" y="1101" width="40" height="40" as="geometry" />
        </mxCell>
        <mxCell id="iyC7rp4BUy3qYHjlYlsj-40" style="edgeStyle=orthogonalEdgeStyle;rounded=0;orthogonalLoop=1;jettySize=auto;html=1;exitX=0.5;exitY=1;exitDx=0;exitDy=0;" edge="1" parent="1">
          <mxGeometry relative="1" as="geometry">
            <mxPoint x="341.5" y="1014" as="targetPoint" />
            <mxPoint x="341.5" y="965" as="sourcePoint" />
          </mxGeometry>
        </mxCell>
        <mxCell id="iyC7rp4BUy3qYHjlYlsj-41" value="&lt;b&gt;&lt;font style=&quot;font-size: 13px;&quot;&gt;xiii&lt;/font&gt;&lt;/b&gt;" style="edgeLabel;html=1;align=center;verticalAlign=middle;resizable=0;points=[];" vertex="1" connectable="0" parent="iyC7rp4BUy3qYHjlYlsj-40">
          <mxGeometry x="-0.3687" relative="1" as="geometry">
            <mxPoint as="offset" />
          </mxGeometry>
        </mxCell>
        <mxCell id="iyC7rp4BUy3qYHjlYlsj-55" style="edgeStyle=orthogonalEdgeStyle;rounded=0;orthogonalLoop=1;jettySize=auto;html=1;exitX=0.5;exitY=1;exitDx=0;exitDy=0;" edge="1" parent="1" source="iyC7rp4BUy3qYHjlYlsj-57">
          <mxGeometry relative="1" as="geometry">
            <mxPoint x="767" y="835" as="targetPoint" />
          </mxGeometry>
        </mxCell>
        <mxCell id="iyC7rp4BUy3qYHjlYlsj-56" value="&lt;b&gt;&lt;font style=&quot;font-size: 13px;&quot;&gt;xxiv&lt;/font&gt;&lt;/b&gt;" style="edgeLabel;html=1;align=center;verticalAlign=middle;resizable=0;points=[];" vertex="1" connectable="0" parent="iyC7rp4BUy3qYHjlYlsj-55">
          <mxGeometry x="-0.3687" relative="1" as="geometry">
            <mxPoint as="offset" />
          </mxGeometry>
        </mxCell>
        <mxCell id="iyC7rp4BUy3qYHjlYlsj-57" value="21" style="ellipse;whiteSpace=wrap;html=1;aspect=fixed;" vertex="1" parent="1">
          <mxGeometry x="747" y="746" width="40" height="40" as="geometry" />
        </mxCell>
        <mxCell id="iyC7rp4BUy3qYHjlYlsj-58" value="22" style="ellipse;whiteSpace=wrap;html=1;aspect=fixed;" vertex="1" parent="1">
          <mxGeometry x="747" y="836" width="40" height="40" as="geometry" />
        </mxCell>
        <mxCell id="iyC7rp4BUy3qYHjlYlsj-59" value="23" style="ellipse;whiteSpace=wrap;html=1;aspect=fixed;" vertex="1" parent="1">
          <mxGeometry x="747" y="926" width="40" height="40" as="geometry" />
        </mxCell>
        <mxCell id="iyC7rp4BUy3qYHjlYlsj-60" style="edgeStyle=orthogonalEdgeStyle;rounded=0;orthogonalLoop=1;jettySize=auto;html=1;exitX=0.5;exitY=1;exitDx=0;exitDy=0;" edge="1" parent="1">
          <mxGeometry relative="1" as="geometry">
            <mxPoint x="766.71" y="925" as="targetPoint" />
            <mxPoint x="766.71" y="876" as="sourcePoint" />
          </mxGeometry>
        </mxCell>
        <mxCell id="iyC7rp4BUy3qYHjlYlsj-61" value="&lt;span style=&quot;font-size: 13px;&quot;&gt;&lt;b&gt;xxv&lt;/b&gt;&lt;/span&gt;" style="edgeLabel;html=1;align=center;verticalAlign=middle;resizable=0;points=[];" vertex="1" connectable="0" parent="iyC7rp4BUy3qYHjlYlsj-60">
          <mxGeometry x="-0.2357" y="2" relative="1" as="geometry">
            <mxPoint as="offset" />
          </mxGeometry>
        </mxCell>
        <mxCell id="iyC7rp4BUy3qYHjlYlsj-62" style="edgeStyle=orthogonalEdgeStyle;rounded=0;orthogonalLoop=1;jettySize=auto;html=1;exitX=0.5;exitY=1;exitDx=0;exitDy=0;" edge="1" parent="1" source="iyC7rp4BUy3qYHjlYlsj-64">
          <mxGeometry relative="1" as="geometry">
            <mxPoint x="767" y="1105" as="targetPoint" />
          </mxGeometry>
        </mxCell>
        <mxCell id="iyC7rp4BUy3qYHjlYlsj-63" value="&lt;b&gt;&lt;font style=&quot;font-size: 13px;&quot;&gt;xxvii&lt;/font&gt;&lt;/b&gt;" style="edgeLabel;html=1;align=center;verticalAlign=middle;resizable=0;points=[];" vertex="1" connectable="0" parent="iyC7rp4BUy3qYHjlYlsj-62">
          <mxGeometry x="-0.3687" relative="1" as="geometry">
            <mxPoint as="offset" />
          </mxGeometry>
        </mxCell>
        <mxCell id="iyC7rp4BUy3qYHjlYlsj-64" value="24" style="ellipse;whiteSpace=wrap;html=1;aspect=fixed;" vertex="1" parent="1">
          <mxGeometry x="747" y="1016" width="40" height="40" as="geometry" />
        </mxCell>
        <mxCell id="iyC7rp4BUy3qYHjlYlsj-99" style="edgeStyle=orthogonalEdgeStyle;rounded=0;orthogonalLoop=1;jettySize=auto;html=1;exitX=0.5;exitY=1;exitDx=0;exitDy=0;entryX=0.5;entryY=0;entryDx=0;entryDy=0;" edge="1" parent="1" source="iyC7rp4BUy3qYHjlYlsj-65" target="iyC7rp4BUy3qYHjlYlsj-82">
          <mxGeometry relative="1" as="geometry" />
        </mxCell>
        <mxCell id="iyC7rp4BUy3qYHjlYlsj-118" value="&lt;b&gt;&lt;font style=&quot;font-size: 13px;&quot;&gt;xxviii&lt;/font&gt;&lt;/b&gt;" style="edgeLabel;html=1;align=center;verticalAlign=middle;resizable=0;points=[];" vertex="1" connectable="0" parent="iyC7rp4BUy3qYHjlYlsj-99">
          <mxGeometry x="-0.2352" y="-1" relative="1" as="geometry">
            <mxPoint as="offset" />
          </mxGeometry>
        </mxCell>
        <mxCell id="iyC7rp4BUy3qYHjlYlsj-65" value="25" style="ellipse;whiteSpace=wrap;html=1;aspect=fixed;" vertex="1" parent="1">
          <mxGeometry x="747" y="1106" width="40" height="40" as="geometry" />
        </mxCell>
        <mxCell id="iyC7rp4BUy3qYHjlYlsj-66" style="edgeStyle=orthogonalEdgeStyle;rounded=0;orthogonalLoop=1;jettySize=auto;html=1;exitX=0.5;exitY=1;exitDx=0;exitDy=0;" edge="1" parent="1">
          <mxGeometry relative="1" as="geometry">
            <mxPoint x="766.5" y="1019" as="targetPoint" />
            <mxPoint x="766.5" y="970" as="sourcePoint" />
          </mxGeometry>
        </mxCell>
        <mxCell id="iyC7rp4BUy3qYHjlYlsj-67" value="&lt;b&gt;&lt;font style=&quot;font-size: 13px;&quot;&gt;xxvi&lt;/font&gt;&lt;/b&gt;" style="edgeLabel;html=1;align=center;verticalAlign=middle;resizable=0;points=[];" vertex="1" connectable="0" parent="iyC7rp4BUy3qYHjlYlsj-66">
          <mxGeometry x="-0.3687" relative="1" as="geometry">
            <mxPoint as="offset" />
          </mxGeometry>
        </mxCell>
        <mxCell id="iyC7rp4BUy3qYHjlYlsj-74" style="edgeStyle=orthogonalEdgeStyle;rounded=0;orthogonalLoop=1;jettySize=auto;html=1;exitX=1;exitY=0.5;exitDx=0;exitDy=0;entryX=0.5;entryY=0;entryDx=0;entryDy=0;" edge="1" parent="1" source="iyC7rp4BUy3qYHjlYlsj-76" target="iyC7rp4BUy3qYHjlYlsj-78">
          <mxGeometry relative="1" as="geometry" />
        </mxCell>
        <mxCell id="iyC7rp4BUy3qYHjlYlsj-114" value="&lt;b&gt;&lt;font style=&quot;font-size: 13px;&quot;&gt;xviii&lt;/font&gt;&lt;/b&gt;" style="edgeLabel;html=1;align=center;verticalAlign=middle;resizable=0;points=[];" vertex="1" connectable="0" parent="iyC7rp4BUy3qYHjlYlsj-74">
          <mxGeometry x="0.4433" relative="1" as="geometry">
            <mxPoint as="offset" />
          </mxGeometry>
        </mxCell>
        <mxCell id="iyC7rp4BUy3qYHjlYlsj-75" style="edgeStyle=orthogonalEdgeStyle;rounded=0;orthogonalLoop=1;jettySize=auto;html=1;exitX=0;exitY=0.5;exitDx=0;exitDy=0;" edge="1" parent="1" source="iyC7rp4BUy3qYHjlYlsj-76" target="iyC7rp4BUy3qYHjlYlsj-79">
          <mxGeometry relative="1" as="geometry" />
        </mxCell>
        <mxCell id="iyC7rp4BUy3qYHjlYlsj-112" value="&lt;b&gt;&lt;font style=&quot;font-size: 13px;&quot;&gt;xvi&lt;/font&gt;&lt;/b&gt;" style="edgeLabel;html=1;align=center;verticalAlign=middle;resizable=0;points=[];" vertex="1" connectable="0" parent="iyC7rp4BUy3qYHjlYlsj-75">
          <mxGeometry x="0.4735" relative="1" as="geometry">
            <mxPoint as="offset" />
          </mxGeometry>
        </mxCell>
        <mxCell id="iyC7rp4BUy3qYHjlYlsj-76" value="15" style="ellipse;whiteSpace=wrap;html=1;aspect=fixed;" vertex="1" parent="1">
          <mxGeometry x="326" y="1191" width="40" height="40" as="geometry" />
        </mxCell>
        <mxCell id="iyC7rp4BUy3qYHjlYlsj-98" style="edgeStyle=orthogonalEdgeStyle;rounded=0;orthogonalLoop=1;jettySize=auto;html=1;exitX=0.5;exitY=1;exitDx=0;exitDy=0;entryX=0.5;entryY=0;entryDx=0;entryDy=0;" edge="1" parent="1" source="iyC7rp4BUy3qYHjlYlsj-78" target="iyC7rp4BUy3qYHjlYlsj-85">
          <mxGeometry relative="1" as="geometry">
            <mxPoint x="346.3333333333335" y="1387" as="targetPoint" />
            <Array as="points">
              <mxPoint x="434" y="1351" />
              <mxPoint x="346" y="1351" />
            </Array>
          </mxGeometry>
        </mxCell>
        <mxCell id="iyC7rp4BUy3qYHjlYlsj-115" value="&lt;b&gt;&lt;font style=&quot;font-size: 13px;&quot;&gt;xix&lt;/font&gt;&lt;/b&gt;" style="edgeLabel;html=1;align=center;verticalAlign=middle;resizable=0;points=[];" vertex="1" connectable="0" parent="iyC7rp4BUy3qYHjlYlsj-98">
          <mxGeometry x="-0.7799" relative="1" as="geometry">
            <mxPoint as="offset" />
          </mxGeometry>
        </mxCell>
        <mxCell id="iyC7rp4BUy3qYHjlYlsj-78" value="17" style="ellipse;whiteSpace=wrap;html=1;aspect=fixed;" vertex="1" parent="1">
          <mxGeometry x="414" y="1279" width="40" height="40" as="geometry" />
        </mxCell>
        <mxCell id="iyC7rp4BUy3qYHjlYlsj-97" style="edgeStyle=orthogonalEdgeStyle;rounded=0;orthogonalLoop=1;jettySize=auto;html=1;exitX=0.5;exitY=1;exitDx=0;exitDy=0;entryX=0.5;entryY=0;entryDx=0;entryDy=0;" edge="1" parent="1" source="iyC7rp4BUy3qYHjlYlsj-79" target="iyC7rp4BUy3qYHjlYlsj-85">
          <mxGeometry relative="1" as="geometry" />
        </mxCell>
        <mxCell id="iyC7rp4BUy3qYHjlYlsj-113" value="&lt;b&gt;&lt;font style=&quot;font-size: 13px;&quot;&gt;xvii&lt;/font&gt;&lt;/b&gt;" style="edgeLabel;html=1;align=center;verticalAlign=middle;resizable=0;points=[];" vertex="1" connectable="0" parent="iyC7rp4BUy3qYHjlYlsj-97">
          <mxGeometry x="-0.8072" y="2" relative="1" as="geometry">
            <mxPoint as="offset" />
          </mxGeometry>
        </mxCell>
        <mxCell id="iyC7rp4BUy3qYHjlYlsj-79" value="16" style="ellipse;whiteSpace=wrap;html=1;aspect=fixed;" vertex="1" parent="1">
          <mxGeometry x="238" y="1279" width="40" height="40" as="geometry" />
        </mxCell>
        <mxCell id="iyC7rp4BUy3qYHjlYlsj-80" style="edgeStyle=orthogonalEdgeStyle;rounded=0;orthogonalLoop=1;jettySize=auto;html=1;exitX=1;exitY=0.5;exitDx=0;exitDy=0;entryX=0.5;entryY=0;entryDx=0;entryDy=0;" edge="1" parent="1" source="iyC7rp4BUy3qYHjlYlsj-82" target="iyC7rp4BUy3qYHjlYlsj-83">
          <mxGeometry relative="1" as="geometry" />
        </mxCell>
        <mxCell id="iyC7rp4BUy3qYHjlYlsj-120" value="&lt;b&gt;&lt;font style=&quot;font-size: 13px;&quot;&gt;xxxi&lt;/font&gt;&lt;/b&gt;" style="edgeLabel;html=1;align=center;verticalAlign=middle;resizable=0;points=[];" vertex="1" connectable="0" parent="iyC7rp4BUy3qYHjlYlsj-80">
          <mxGeometry x="0.5142" y="1" relative="1" as="geometry">
            <mxPoint as="offset" />
          </mxGeometry>
        </mxCell>
        <mxCell id="iyC7rp4BUy3qYHjlYlsj-81" style="edgeStyle=orthogonalEdgeStyle;rounded=0;orthogonalLoop=1;jettySize=auto;html=1;exitX=0;exitY=0.5;exitDx=0;exitDy=0;" edge="1" parent="1" source="iyC7rp4BUy3qYHjlYlsj-82" target="iyC7rp4BUy3qYHjlYlsj-84">
          <mxGeometry relative="1" as="geometry" />
        </mxCell>
        <mxCell id="iyC7rp4BUy3qYHjlYlsj-119" value="&lt;span style=&quot;font-size: 13px;&quot;&gt;&lt;b&gt;xxix&lt;/b&gt;&lt;/span&gt;" style="edgeLabel;html=1;align=center;verticalAlign=middle;resizable=0;points=[];" vertex="1" connectable="0" parent="iyC7rp4BUy3qYHjlYlsj-81">
          <mxGeometry x="0.5041" y="1" relative="1" as="geometry">
            <mxPoint as="offset" />
          </mxGeometry>
        </mxCell>
        <mxCell id="iyC7rp4BUy3qYHjlYlsj-82" value="26" style="ellipse;whiteSpace=wrap;html=1;aspect=fixed;" vertex="1" parent="1">
          <mxGeometry x="747" y="1191" width="40" height="40" as="geometry" />
        </mxCell>
        <mxCell id="iyC7rp4BUy3qYHjlYlsj-101" style="edgeStyle=orthogonalEdgeStyle;rounded=0;orthogonalLoop=1;jettySize=auto;html=1;exitX=0.5;exitY=1;exitDx=0;exitDy=0;entryX=0.5;entryY=0;entryDx=0;entryDy=0;" edge="1" parent="1" source="iyC7rp4BUy3qYHjlYlsj-83" target="iyC7rp4BUy3qYHjlYlsj-92">
          <mxGeometry relative="1" as="geometry">
            <mxPoint x="791.4117647058824" y="1402.7647058823532" as="targetPoint" />
          </mxGeometry>
        </mxCell>
        <mxCell id="iyC7rp4BUy3qYHjlYlsj-122" value="&lt;b&gt;&lt;font style=&quot;font-size: 13px;&quot;&gt;xxxii&lt;/font&gt;&lt;/b&gt;" style="edgeLabel;html=1;align=center;verticalAlign=middle;resizable=0;points=[];" vertex="1" connectable="0" parent="iyC7rp4BUy3qYHjlYlsj-101">
          <mxGeometry x="-0.8112" y="1" relative="1" as="geometry">
            <mxPoint as="offset" />
          </mxGeometry>
        </mxCell>
        <mxCell id="iyC7rp4BUy3qYHjlYlsj-83" value="28" style="ellipse;whiteSpace=wrap;html=1;aspect=fixed;" vertex="1" parent="1">
          <mxGeometry x="835" y="1279" width="40" height="40" as="geometry" />
        </mxCell>
        <mxCell id="iyC7rp4BUy3qYHjlYlsj-100" style="edgeStyle=orthogonalEdgeStyle;rounded=0;orthogonalLoop=1;jettySize=auto;html=1;exitX=0.5;exitY=1;exitDx=0;exitDy=0;entryX=0.5;entryY=0;entryDx=0;entryDy=0;" edge="1" parent="1" source="iyC7rp4BUy3qYHjlYlsj-84" target="iyC7rp4BUy3qYHjlYlsj-92">
          <mxGeometry relative="1" as="geometry">
            <Array as="points">
              <mxPoint x="679" y="1361" />
              <mxPoint x="792" y="1361" />
            </Array>
          </mxGeometry>
        </mxCell>
        <mxCell id="iyC7rp4BUy3qYHjlYlsj-121" value="&lt;b&gt;&lt;font style=&quot;font-size: 13px;&quot;&gt;xxx&lt;/font&gt;&lt;/b&gt;" style="edgeLabel;html=1;align=center;verticalAlign=middle;resizable=0;points=[];" vertex="1" connectable="0" parent="iyC7rp4BUy3qYHjlYlsj-100">
          <mxGeometry x="-0.87" y="1" relative="1" as="geometry">
            <mxPoint as="offset" />
          </mxGeometry>
        </mxCell>
        <mxCell id="iyC7rp4BUy3qYHjlYlsj-84" value="27" style="ellipse;whiteSpace=wrap;html=1;aspect=fixed;" vertex="1" parent="1">
          <mxGeometry x="659" y="1279" width="40" height="40" as="geometry" />
        </mxCell>
        <mxCell id="iyC7rp4BUy3qYHjlYlsj-85" value="18" style="ellipse;whiteSpace=wrap;html=1;aspect=fixed;" vertex="1" parent="1">
          <mxGeometry x="326" y="1382" width="40" height="40" as="geometry" />
        </mxCell>
        <mxCell id="iyC7rp4BUy3qYHjlYlsj-86" style="edgeStyle=orthogonalEdgeStyle;rounded=0;orthogonalLoop=1;jettySize=auto;html=1;exitX=0.5;exitY=1;exitDx=0;exitDy=0;" edge="1" parent="1" source="iyC7rp4BUy3qYHjlYlsj-88">
          <mxGeometry relative="1" as="geometry">
            <mxPoint x="346" y="1561" as="targetPoint" />
          </mxGeometry>
        </mxCell>
        <mxCell id="iyC7rp4BUy3qYHjlYlsj-87" value="&lt;b&gt;&lt;font style=&quot;font-size: 13px;&quot;&gt;xxi&lt;/font&gt;&lt;/b&gt;" style="edgeLabel;html=1;align=center;verticalAlign=middle;resizable=0;points=[];" vertex="1" connectable="0" parent="iyC7rp4BUy3qYHjlYlsj-86">
          <mxGeometry x="-0.3687" relative="1" as="geometry">
            <mxPoint as="offset" />
          </mxGeometry>
        </mxCell>
        <mxCell id="iyC7rp4BUy3qYHjlYlsj-88" value="19" style="ellipse;whiteSpace=wrap;html=1;aspect=fixed;" vertex="1" parent="1">
          <mxGeometry x="326" y="1472" width="40" height="40" as="geometry" />
        </mxCell>
        <mxCell id="iyC7rp4BUy3qYHjlYlsj-103" style="edgeStyle=orthogonalEdgeStyle;rounded=0;orthogonalLoop=1;jettySize=auto;html=1;exitX=0.5;exitY=1;exitDx=0;exitDy=0;entryX=0.5;entryY=0;entryDx=0;entryDy=0;" edge="1" parent="1" source="iyC7rp4BUy3qYHjlYlsj-89" target="iyC7rp4BUy3qYHjlYlsj-93">
          <mxGeometry relative="1" as="geometry">
            <mxPoint x="524.3529411764707" y="1698.0588235294117" as="targetPoint" />
          </mxGeometry>
        </mxCell>
        <mxCell id="iyC7rp4BUy3qYHjlYlsj-116" value="&lt;b&gt;&lt;font style=&quot;font-size: 13px;&quot;&gt;xxii&lt;/font&gt;&lt;/b&gt;" style="edgeLabel;html=1;align=center;verticalAlign=middle;resizable=0;points=[];" vertex="1" connectable="0" parent="iyC7rp4BUy3qYHjlYlsj-103">
          <mxGeometry x="-0.8708" y="3" relative="1" as="geometry">
            <mxPoint as="offset" />
          </mxGeometry>
        </mxCell>
        <mxCell id="iyC7rp4BUy3qYHjlYlsj-89" value="20" style="ellipse;whiteSpace=wrap;html=1;aspect=fixed;" vertex="1" parent="1">
          <mxGeometry x="326" y="1562" width="40" height="40" as="geometry" />
        </mxCell>
        <mxCell id="iyC7rp4BUy3qYHjlYlsj-90" style="edgeStyle=orthogonalEdgeStyle;rounded=0;orthogonalLoop=1;jettySize=auto;html=1;exitX=0.5;exitY=1;exitDx=0;exitDy=0;" edge="1" parent="1">
          <mxGeometry relative="1" as="geometry">
            <mxPoint x="345.5" y="1475" as="targetPoint" />
            <mxPoint x="345.5" y="1426" as="sourcePoint" />
          </mxGeometry>
        </mxCell>
        <mxCell id="iyC7rp4BUy3qYHjlYlsj-91" value="&lt;b&gt;&lt;font style=&quot;font-size: 13px;&quot;&gt;xx&lt;/font&gt;&lt;/b&gt;" style="edgeLabel;html=1;align=center;verticalAlign=middle;resizable=0;points=[];" vertex="1" connectable="0" parent="iyC7rp4BUy3qYHjlYlsj-90">
          <mxGeometry x="-0.3687" relative="1" as="geometry">
            <mxPoint as="offset" />
          </mxGeometry>
        </mxCell>
        <mxCell id="iyC7rp4BUy3qYHjlYlsj-102" style="edgeStyle=orthogonalEdgeStyle;rounded=0;orthogonalLoop=1;jettySize=auto;html=1;exitX=0.5;exitY=1;exitDx=0;exitDy=0;entryX=0.5;entryY=0;entryDx=0;entryDy=0;" edge="1" parent="1" source="iyC7rp4BUy3qYHjlYlsj-92" target="iyC7rp4BUy3qYHjlYlsj-93">
          <mxGeometry relative="1" as="geometry" />
        </mxCell>
        <mxCell id="iyC7rp4BUy3qYHjlYlsj-123" value="&lt;b&gt;&lt;font style=&quot;font-size: 13px;&quot;&gt;xxxiii&lt;/font&gt;&lt;/b&gt;" style="edgeLabel;html=1;align=center;verticalAlign=middle;resizable=0;points=[];" vertex="1" connectable="0" parent="iyC7rp4BUy3qYHjlYlsj-102">
          <mxGeometry x="-0.8208" y="-2" relative="1" as="geometry">
            <mxPoint as="offset" />
          </mxGeometry>
        </mxCell>
        <mxCell id="iyC7rp4BUy3qYHjlYlsj-92" value="29" style="ellipse;whiteSpace=wrap;html=1;aspect=fixed;" vertex="1" parent="1">
          <mxGeometry x="772" y="1398" width="40" height="40" as="geometry" />
        </mxCell>
        <mxCell id="iyC7rp4BUy3qYHjlYlsj-93" value="30" style="ellipse;whiteSpace=wrap;html=1;aspect=fixed;" vertex="1" parent="1">
          <mxGeometry x="506" y="1692" width="40" height="40" as="geometry" />
        </mxCell>
        <mxCell id="iyC7rp4BUy3qYHjlYlsj-110" style="edgeStyle=orthogonalEdgeStyle;rounded=0;orthogonalLoop=1;jettySize=auto;html=1;exitX=0.5;exitY=1;exitDx=0;exitDy=0;entryX=0.378;entryY=0.098;entryDx=0;entryDy=0;entryPerimeter=0;" edge="1" parent="1" source="iyC7rp4BUy3qYHjlYlsj-39" target="iyC7rp4BUy3qYHjlYlsj-76">
          <mxGeometry relative="1" as="geometry" />
        </mxCell>
        <mxCell id="iyC7rp4BUy3qYHjlYlsj-111" value="&lt;b&gt;&lt;font style=&quot;font-size: 13px;&quot;&gt;xv&lt;/font&gt;&lt;/b&gt;" style="edgeLabel;html=1;align=center;verticalAlign=middle;resizable=0;points=[];" vertex="1" connectable="0" parent="iyC7rp4BUy3qYHjlYlsj-110">
          <mxGeometry x="0.0456" y="2" relative="1" as="geometry">
            <mxPoint as="offset" />
          </mxGeometry>
        </mxCell>
      </root>
    </mxGraphModel>
  </diagram>
</mxfile>
